<svg width="14" height="15" viewBox="0 0 14 15" fill="none" xmlns="http://www.w3.org/2000/svg">
<path d="M12.8162 11.1925C12.8162 11.4025 12.7695 11.6183 12.6703 11.8283C12.5712 12.0383 12.4428 12.2367 12.2737 12.4233C11.9878 12.7383 11.6728 12.9658 11.317 13.1117C10.967 13.2575 10.5878 13.3333 10.1795 13.3333C9.58449 13.3333 8.94866 13.1933 8.27783 12.9075C7.60699 12.6217 6.93616 12.2367 6.27116 11.7525C5.60033 11.2625 4.96449 10.72 4.35783 10.1192C3.75699 9.51249 3.21449 8.87666 2.73033 8.21166C2.25199 7.54666 1.86699 6.88166 1.58699 6.22249C1.30699 5.55749 1.16699 4.92166 1.16699 4.31499C1.16699 3.91832 1.23699 3.53916 1.37699 3.18916C1.51699 2.83332 1.73866 2.50666 2.04783 2.21499C2.42116 1.84749 2.82949 1.66666 3.26116 1.66666C3.42449 1.66666 3.58783 1.70166 3.73366 1.77166C3.88533 1.84166 4.01949 1.94666 4.12449 2.09832L5.47783 4.00582C5.58283 4.15166 5.65866 4.28582 5.71116 4.41416C5.76366 4.53666 5.79283 4.65916 5.79283 4.76999C5.79283 4.90999 5.75199 5.04999 5.67033 5.18416C5.59449 5.31832 5.48366 5.45832 5.34366 5.59832L4.90033 6.05916C4.83616 6.12332 4.80699 6.19916 4.80699 6.29249C4.80699 6.33916 4.81283 6.37999 4.82449 6.42666C4.84199 6.47332 4.85949 6.50832 4.87116 6.54332C4.97616 6.73582 5.15699 6.98666 5.41366 7.28999C5.67616 7.59332 5.95616 7.90249 6.25949 8.21166C6.57449 8.52082 6.87783 8.80666 7.18699 9.06916C7.49033 9.32582 7.74116 9.50082 7.93949 9.60582C7.96866 9.61749 8.00366 9.63499 8.04449 9.65249C8.09116 9.66999 8.13783 9.67582 8.19033 9.67582C8.28949 9.67582 8.36533 9.64082 8.42949 9.57666L8.87283 9.13916C9.01866 8.99332 9.15866 8.88249 9.29283 8.81249C9.42699 8.73082 9.56116 8.68999 9.70699 8.68999C9.81782 8.68999 9.93449 8.71332 10.0628 8.76582C10.1912 8.81832 10.3253 8.89416 10.4712 8.99332L12.402 10.3642C12.5537 10.4692 12.6587 10.5917 12.7228 10.7375C12.7812 10.8833 12.8162 11.0292 12.8162 11.1925Z" stroke="#0100BB" stroke-width="1.5" stroke-miterlimit="10"/>
<path d="M10.7917 5.74998C10.7917 5.39998 10.5175 4.86331 10.1092 4.42581C9.73583 4.02331 9.24 3.70831 8.75 3.70831" stroke="#0100BB" stroke-width="1.5" stroke-linecap="round" stroke-linejoin="round"/>
<path d="M12.8333 5.74999C12.8333 3.49249 11.0075 1.66666 8.75 1.66666" stroke="#0100BB" stroke-width="1.5" stroke-linecap="round" stroke-linejoin="round"/>
</svg>
