<svg width="25" height="24" viewBox="0 0 25 24" fill="none" xmlns="http://www.w3.org/2000/svg">
<path d="M22.3795 0.7336C21.9695 0.50548 21.5186 0.360409 21.0526 0.306685C20.5865 0.252961 20.1144 0.291637 19.6633 0.420501C19.2122 0.549366 18.7909 0.765891 18.4235 1.05769C18.0562 1.3495 17.7499 1.71085 17.5223 2.1211L10.892 14.0532L7.09735 10.2586C6.76789 9.91749 6.37381 9.64541 5.93808 9.45824C5.50235 9.27106 5.03371 9.17254 4.55949 9.16842C4.08528 9.1643 3.615 9.25466 3.17608 9.43424C2.73717 9.61381 2.33841 9.879 2.00308 10.2143C1.66775 10.5497 1.40256 10.9484 1.22298 11.3873C1.04341 11.8263 0.953045 12.2965 0.957166 12.7707C0.961287 13.245 1.05981 13.7136 1.24698 14.1493C1.43416 14.5851 1.70624 14.9791 2.04735 15.3086L9.1902 22.4515C9.8652 23.1282 10.7759 23.4997 11.7152 23.4997L12.2098 23.464C12.7573 23.3874 13.2794 23.1848 13.7352 22.8721C14.1911 22.5595 14.5681 22.1453 14.8366 21.6622L23.7652 5.59074C23.9932 5.18083 24.1381 4.73004 24.1919 4.2641C24.2456 3.79816 24.207 3.3262 24.0783 2.87517C23.9497 2.42413 23.7334 2.00286 23.4419 1.63541C23.1504 1.26796 22.7894 0.961525 22.3795 0.7336Z" fill="#FEFEFE"/>
</svg>
