<svg width="14" height="14" viewBox="0 0 14 14" fill="none" xmlns="http://www.w3.org/2000/svg">
<g clip-path="url(#clip0_1264_1833)">
<path fill-rule="evenodd" clip-rule="evenodd" d="M7 1.16666C8.39239 1.16666 9.72774 1.71978 10.7123 2.70435C11.6969 3.68891 12.25 5.02427 12.25 6.41666C12.25 8.20982 11.2723 9.67749 10.2422 10.7304C9.72738 11.2507 9.16579 11.7224 8.5645 12.1397L8.316 12.3089L8.19933 12.3865L7.97942 12.5265L7.78342 12.6461L7.54075 12.7872C7.37596 12.881 7.18961 12.9304 7 12.9304C6.81039 12.9304 6.62404 12.881 6.45925 12.7872L6.21658 12.6461L5.91325 12.4594L5.80125 12.3865L5.56208 12.2272C4.9134 11.7882 4.30912 11.2869 3.75783 10.7304C2.72767 9.67691 1.75 8.20982 1.75 6.41666C1.75 5.02427 2.30312 3.68891 3.28769 2.70435C4.27226 1.71978 5.60761 1.16666 7 1.16666ZM7 2.33332C5.91703 2.33332 4.87842 2.76353 4.11265 3.5293C3.34687 4.29508 2.91667 5.33369 2.91667 6.41666C2.91667 7.77116 3.65867 8.95999 4.59142 9.91432C4.99253 10.3203 5.42602 10.6929 5.88758 11.0285L6.15475 11.2187C6.24108 11.2787 6.32392 11.3347 6.40383 11.3867L6.63133 11.5325L6.83142 11.6544L7 11.753L7.26542 11.5961L7.4795 11.4619C7.59325 11.3896 7.71575 11.3085 7.84525 11.2187L8.11242 11.0285C8.57398 10.6929 9.00747 10.3203 9.40858 9.91432C10.3413 8.96057 11.0833 7.77116 11.0833 6.41666C11.0833 5.33369 10.6531 4.29508 9.88735 3.5293C9.12158 2.76353 8.08297 2.33332 7 2.33332ZM7 4.08332C7.61884 4.08332 8.21233 4.32916 8.64992 4.76674C9.0875 5.20433 9.33333 5.79782 9.33333 6.41666C9.33333 7.03549 9.0875 7.62899 8.64992 8.06657C8.21233 8.50416 7.61884 8.74999 7 8.74999C6.38116 8.74999 5.78767 8.50416 5.35008 8.06657C4.9125 7.62899 4.66667 7.03549 4.66667 6.41666C4.66667 5.79782 4.9125 5.20433 5.35008 4.76674C5.78767 4.32916 6.38116 4.08332 7 4.08332ZM7 5.24999C6.69058 5.24999 6.39383 5.37291 6.17504 5.5917C5.95625 5.81049 5.83333 6.10724 5.83333 6.41666C5.83333 6.72608 5.95625 7.02282 6.17504 7.24161C6.39383 7.46041 6.69058 7.58332 7 7.58332C7.30942 7.58332 7.60616 7.46041 7.82496 7.24161C8.04375 7.02282 8.16667 6.72608 8.16667 6.41666C8.16667 6.10724 8.04375 5.81049 7.82496 5.5917C7.60616 5.37291 7.30942 5.24999 7 5.24999Z" fill="#0100BB"/>
</g>
<defs>
<clipPath id="clip0_1264_1833">
<rect width="14" height="14" fill="white"/>
</clipPath>
</defs>
</svg>
